<?xml version="1.0" encoding="utf-8"?>
<!-- Generator: Adobe Illustrator 19.1.0, SVG Export Plug-In . SVG Version: 6.00 Build 0)  -->
<svg version="1.1" xmlns="http://www.w3.org/2000/svg" xmlns:xlink="http://www.w3.org/1999/xlink" x="0px" y="0px"
	 viewBox="0 0 805.2 640.5" style="enable-background:new 0 0 805.2 640.5;" xml:space="preserve">
<g id="Layer_1">
</g>
<g id="Layer_2">
	<path class="st0" d="M64,221.5L50.2,211c0,0-36,9.8-44.8,43.5s-4.1,53-4.1,53l3.6,1.7h16.9l261,225.3l-57.3,106l571.7-0.6
		l-81.8-239.5l73.9-98.3l5.1-141.6l9.7-11.1l1.3-9c0,0-8.4-29-50.4-41s-58.7,8-58.7,8l-1.8,20.4l1.1,12.9L672,244.2l-6.6,14.5
		l-90.1-3.6l-29.9-13l0.5-12.4l-13.6-9.1l-9-7.5l7.6-51.7l13.1-34.2l0.8-8.5l-4.5-2.9l-8.4,10.5l-3.6,0.3l-22-40.4l-9.4-35.9l-4-20
		l4-3.4l-0.5-8.1L487.2,8l-21.4-8L239.3,46.5l-19,70.5l1.6,27.2l62.9,114.9l-13,16.1l-26.3,25.1l-31,9.6l-10.6-15.9l-18-10.3
		l-8.1-5.3l-11-3.2L64,221.5z"/>
</g>
</svg>
